<svg width="241" height="241" viewBox="0 0 241 241" fill="none" xmlns="http://www.w3.org/2000/svg">
<rect width="241" height="241" rx="16" fill="#78B8FF" fill-opacity="0.04"/>
<ellipse cx="21.9981" cy="21.9981" rx="1.99812" ry="1.99811" fill="#A6ABBD" fill-opacity="0.5"/>
<ellipse cx="43.8878" cy="21.9981" rx="1.99812" ry="1.99811" fill="#A6ABBD" fill-opacity="0.5"/>
<ellipse cx="65.7774" cy="21.9981" rx="1.99812" ry="1.99811" fill="#A6ABBD" fill-opacity="0.5"/>
<ellipse cx="87.6661" cy="21.9981" rx="1.99812" ry="1.99811" fill="#A6ABBD" fill-opacity="0.5"/>
<ellipse cx="109.555" cy="21.9981" rx="1.99812" ry="1.99811" fill="#A6ABBD" fill-opacity="0.5"/>
<ellipse cx="131.444" cy="21.9981" rx="1.99812" ry="1.99811" fill="#A6ABBD" fill-opacity="0.5"/>
<ellipse cx="153.334" cy="21.9981" rx="1.99812" ry="1.99811" fill="#A6ABBD" fill-opacity="0.5"/>
<ellipse cx="175.224" cy="21.9981" rx="1.99812" ry="1.99811" fill="#A6ABBD" fill-opacity="0.5"/>
<ellipse cx="197.112" cy="21.9981" rx="1.99812" ry="1.99811" fill="#A6ABBD" fill-opacity="0.5"/>
<ellipse cx="219.002" cy="21.9981" rx="1.99812" ry="1.99811" fill="#A6ABBD" fill-opacity="0.5"/>
<ellipse cx="21.9981" cy="43.8887" rx="1.99812" ry="1.99811" fill="#A6ABBD" fill-opacity="0.5"/>
<ellipse cx="43.8878" cy="43.8887" rx="1.99812" ry="1.99811" fill="#A6ABBD" fill-opacity="0.5"/>
<ellipse cx="65.7774" cy="43.8887" rx="1.99812" ry="1.99811" fill="#A6ABBD" fill-opacity="0.5"/>
<ellipse cx="87.6661" cy="43.8887" rx="1.99812" ry="1.99811" fill="#A6ABBD" fill-opacity="0.5"/>
<ellipse cx="109.555" cy="43.8887" rx="1.99812" ry="1.99811" fill="#A6ABBD" fill-opacity="0.5"/>
<ellipse cx="131.444" cy="43.8887" rx="1.99812" ry="1.99811" fill="#A6ABBD" fill-opacity="0.5"/>
<ellipse cx="153.334" cy="43.8887" rx="1.99812" ry="1.99811" fill="#A6ABBD" fill-opacity="0.5"/>
<ellipse cx="175.224" cy="43.8887" rx="1.99812" ry="1.99811" fill="#A6ABBD" fill-opacity="0.5"/>
<ellipse cx="197.112" cy="43.8887" rx="1.99812" ry="1.99811" fill="#A6ABBD" fill-opacity="0.5"/>
<ellipse cx="219.002" cy="43.8887" rx="1.99812" ry="1.99811" fill="#A6ABBD" fill-opacity="0.5"/>
<ellipse cx="21.9981" cy="65.7755" rx="1.99812" ry="1.99811" fill="#A6ABBD" fill-opacity="0.5"/>
<ellipse cx="43.8878" cy="65.7755" rx="1.99812" ry="1.99811" fill="#A6ABBD" fill-opacity="0.5"/>
<ellipse cx="65.7774" cy="65.7755" rx="1.99812" ry="1.99811" fill="#A6ABBD" fill-opacity="0.5"/>
<ellipse cx="87.6661" cy="65.7755" rx="1.99812" ry="1.99811" fill="#A6ABBD" fill-opacity="0.5"/>
<ellipse cx="109.555" cy="65.7755" rx="1.99812" ry="1.99811" fill="#A6ABBD" fill-opacity="0.5"/>
<ellipse cx="131.444" cy="65.7755" rx="1.99812" ry="1.99811" fill="#A6ABBD" fill-opacity="0.5"/>
<ellipse cx="153.334" cy="65.7755" rx="1.99812" ry="1.99811" fill="#A6ABBD" fill-opacity="0.5"/>
<ellipse cx="175.224" cy="65.7755" rx="1.99812" ry="1.99811" fill="#A6ABBD" fill-opacity="0.5"/>
<ellipse cx="197.112" cy="65.7755" rx="1.99812" ry="1.99811" fill="#A6ABBD" fill-opacity="0.5"/>
<ellipse cx="219.002" cy="65.7755" rx="1.99812" ry="1.99811" fill="#A6ABBD" fill-opacity="0.5"/>
<ellipse cx="21.9981" cy="87.6661" rx="1.99812" ry="1.99811" fill="#A6ABBD" fill-opacity="0.5"/>
<ellipse cx="43.8878" cy="87.6661" rx="1.99812" ry="1.99811" fill="#A6ABBD" fill-opacity="0.5"/>
<ellipse cx="65.7774" cy="87.6661" rx="1.99812" ry="1.99811" fill="#A6ABBD" fill-opacity="0.5"/>
<ellipse cx="87.6661" cy="87.6661" rx="1.99812" ry="1.99811" fill="#A6ABBD" fill-opacity="0.5"/>
<ellipse cx="109.555" cy="87.6661" rx="1.99812" ry="1.99811" fill="#A6ABBD" fill-opacity="0.5"/>
<ellipse cx="131.444" cy="87.6661" rx="1.99812" ry="1.99811" fill="#A6ABBD" fill-opacity="0.5"/>
<ellipse cx="153.334" cy="87.6661" rx="1.99812" ry="1.99811" fill="#A6ABBD" fill-opacity="0.5"/>
<ellipse cx="175.224" cy="87.6661" rx="1.99812" ry="1.99811" fill="#A6ABBD" fill-opacity="0.5"/>
<ellipse cx="197.112" cy="87.6661" rx="1.99812" ry="1.99811" fill="#A6ABBD" fill-opacity="0.5"/>
<ellipse cx="219.002" cy="87.6661" rx="1.99812" ry="1.99811" fill="#A6ABBD" fill-opacity="0.5"/>
<ellipse cx="21.9981" cy="109.557" rx="1.99812" ry="1.99811" fill="#A6ABBD" fill-opacity="0.5"/>
<ellipse cx="43.8878" cy="109.557" rx="1.99812" ry="1.99811" fill="#A6ABBD" fill-opacity="0.5"/>
<ellipse cx="65.7774" cy="109.557" rx="1.99812" ry="1.99811" fill="#A6ABBD" fill-opacity="0.5"/>
<ellipse cx="87.6661" cy="109.557" rx="1.99812" ry="1.99811" fill="#A6ABBD" fill-opacity="0.5"/>
<ellipse cx="109.555" cy="109.557" rx="1.99812" ry="1.99811" fill="#A6ABBD" fill-opacity="0.5"/>
<ellipse cx="131.444" cy="109.557" rx="1.99812" ry="1.99811" fill="#A6ABBD" fill-opacity="0.5"/>
<ellipse cx="153.334" cy="109.557" rx="1.99812" ry="1.99811" fill="#A6ABBD" fill-opacity="0.5"/>
<ellipse cx="175.224" cy="109.557" rx="1.99812" ry="1.99811" fill="#A6ABBD" fill-opacity="0.5"/>
<ellipse cx="197.112" cy="109.557" rx="1.99812" ry="1.99811" fill="#A6ABBD" fill-opacity="0.5"/>
<ellipse cx="219.002" cy="109.557" rx="1.99812" ry="1.99811" fill="#A6ABBD" fill-opacity="0.5"/>
<ellipse cx="21.9981" cy="131.443" rx="1.99812" ry="1.99811" fill="#A6ABBD" fill-opacity="0.5"/>
<ellipse cx="43.8878" cy="131.443" rx="1.99812" ry="1.99811" fill="#A6ABBD" fill-opacity="0.5"/>
<ellipse cx="65.7774" cy="131.443" rx="1.99812" ry="1.99811" fill="#A6ABBD" fill-opacity="0.5"/>
<ellipse cx="87.6661" cy="131.443" rx="1.99812" ry="1.99811" fill="#A6ABBD" fill-opacity="0.5"/>
<ellipse cx="109.555" cy="131.443" rx="1.99812" ry="1.99811" fill="#A6ABBD" fill-opacity="0.5"/>
<ellipse cx="131.444" cy="131.443" rx="1.99812" ry="1.99811" fill="#A6ABBD" fill-opacity="0.5"/>
<ellipse cx="153.334" cy="131.443" rx="1.99812" ry="1.99811" fill="#A6ABBD" fill-opacity="0.5"/>
<ellipse cx="175.224" cy="131.443" rx="1.99812" ry="1.99811" fill="#A6ABBD" fill-opacity="0.5"/>
<ellipse cx="197.112" cy="131.443" rx="1.99812" ry="1.99811" fill="#A6ABBD" fill-opacity="0.5"/>
<ellipse cx="219.002" cy="131.443" rx="1.99812" ry="1.99811" fill="#A6ABBD" fill-opacity="0.5"/>
<ellipse cx="21.9981" cy="153.334" rx="1.99812" ry="1.99811" fill="#A6ABBD" fill-opacity="0.5"/>
<ellipse cx="43.8878" cy="153.334" rx="1.99812" ry="1.99811" fill="#A6ABBD" fill-opacity="0.5"/>
<ellipse cx="65.7774" cy="153.334" rx="1.99812" ry="1.99811" fill="#A6ABBD" fill-opacity="0.5"/>
<ellipse cx="87.6661" cy="153.334" rx="1.99812" ry="1.99811" fill="#A6ABBD" fill-opacity="0.5"/>
<ellipse cx="109.555" cy="153.334" rx="1.99812" ry="1.99811" fill="#A6ABBD" fill-opacity="0.5"/>
<ellipse cx="131.444" cy="153.334" rx="1.99812" ry="1.99811" fill="#A6ABBD" fill-opacity="0.5"/>
<ellipse cx="153.334" cy="153.334" rx="1.99812" ry="1.99811" fill="#A6ABBD" fill-opacity="0.5"/>
<ellipse cx="175.224" cy="153.334" rx="1.99812" ry="1.99811" fill="#A6ABBD" fill-opacity="0.5"/>
<ellipse cx="197.112" cy="153.334" rx="1.99812" ry="1.99811" fill="#A6ABBD" fill-opacity="0.5"/>
<ellipse cx="219.002" cy="153.334" rx="1.99812" ry="1.99811" fill="#A6ABBD" fill-opacity="0.5"/>
<ellipse cx="21.9981" cy="175.225" rx="1.99812" ry="1.99811" fill="#A6ABBD" fill-opacity="0.5"/>
<ellipse cx="43.8878" cy="175.225" rx="1.99812" ry="1.99811" fill="#A6ABBD" fill-opacity="0.5"/>
<ellipse cx="65.7774" cy="175.225" rx="1.99812" ry="1.99811" fill="#A6ABBD" fill-opacity="0.5"/>
<ellipse cx="87.6661" cy="175.225" rx="1.99812" ry="1.99811" fill="#A6ABBD" fill-opacity="0.5"/>
<ellipse cx="109.555" cy="175.225" rx="1.99812" ry="1.99811" fill="#A6ABBD" fill-opacity="0.5"/>
<ellipse cx="131.444" cy="175.225" rx="1.99812" ry="1.99811" fill="#A6ABBD" fill-opacity="0.5"/>
<ellipse cx="153.334" cy="175.225" rx="1.99812" ry="1.99811" fill="#A6ABBD" fill-opacity="0.5"/>
<ellipse cx="175.224" cy="175.225" rx="1.99812" ry="1.99811" fill="#A6ABBD" fill-opacity="0.5"/>
<ellipse cx="197.112" cy="175.225" rx="1.99812" ry="1.99811" fill="#A6ABBD" fill-opacity="0.5"/>
<ellipse cx="219.002" cy="175.225" rx="1.99812" ry="1.99811" fill="#A6ABBD" fill-opacity="0.5"/>
<ellipse cx="21.9981" cy="197.111" rx="1.99812" ry="1.99811" fill="#A6ABBD" fill-opacity="0.5"/>
<ellipse cx="43.8878" cy="197.111" rx="1.99812" ry="1.99811" fill="#A6ABBD" fill-opacity="0.5"/>
<ellipse cx="65.7774" cy="197.111" rx="1.99812" ry="1.99811" fill="#A6ABBD" fill-opacity="0.5"/>
<ellipse cx="87.6661" cy="197.111" rx="1.99812" ry="1.99811" fill="#A6ABBD" fill-opacity="0.5"/>
<ellipse cx="109.555" cy="197.111" rx="1.99812" ry="1.99811" fill="#A6ABBD" fill-opacity="0.5"/>
<ellipse cx="131.444" cy="197.111" rx="1.99812" ry="1.99811" fill="#A6ABBD" fill-opacity="0.5"/>
<ellipse cx="153.334" cy="197.111" rx="1.99812" ry="1.99811" fill="#A6ABBD" fill-opacity="0.5"/>
<ellipse cx="175.224" cy="197.111" rx="1.99812" ry="1.99811" fill="#A6ABBD" fill-opacity="0.5"/>
<ellipse cx="197.112" cy="197.111" rx="1.99812" ry="1.99811" fill="#A6ABBD" fill-opacity="0.5"/>
<ellipse cx="219.002" cy="197.111" rx="1.99812" ry="1.99811" fill="#A6ABBD" fill-opacity="0.5"/>
<ellipse cx="21.9981" cy="219.002" rx="1.99812" ry="1.99811" fill="#A6ABBD" fill-opacity="0.5"/>
<ellipse cx="43.8878" cy="219.002" rx="1.99812" ry="1.99811" fill="#A6ABBD" fill-opacity="0.5"/>
<ellipse cx="65.7774" cy="219.002" rx="1.99812" ry="1.99811" fill="#A6ABBD" fill-opacity="0.5"/>
<ellipse cx="87.6661" cy="219.002" rx="1.99812" ry="1.99811" fill="#A6ABBD" fill-opacity="0.5"/>
<ellipse cx="109.555" cy="219.002" rx="1.99812" ry="1.99811" fill="#A6ABBD" fill-opacity="0.5"/>
<ellipse cx="131.444" cy="219.002" rx="1.99812" ry="1.99811" fill="#A6ABBD" fill-opacity="0.5"/>
<ellipse cx="153.334" cy="219.002" rx="1.99812" ry="1.99811" fill="#A6ABBD" fill-opacity="0.5"/>
<ellipse cx="175.224" cy="219.002" rx="1.99812" ry="1.99811" fill="#A6ABBD" fill-opacity="0.5"/>
<ellipse cx="197.112" cy="219.002" rx="1.99812" ry="1.99811" fill="#A6ABBD" fill-opacity="0.5"/>
<ellipse cx="219.002" cy="219.002" rx="1.99812" ry="1.99811" fill="#A6ABBD" fill-opacity="0.5"/>
</svg>
